<svg xmlns="http://www.w3.org/2000/svg" viewBox="0 0 1000 1000"><defs><linearGradient id="a" x1="748.17" x2="849.28" y1="420.69" y2="335.85" gradientUnits="userSpaceOnUse"><stop offset="0" stop-color="#e73652"/><stop offset="1" stop-color="#f18440"/></linearGradient><linearGradient id="d" x1="96.28" x2="419.77" y1="531.79" y2="531.79" gradientUnits="userSpaceOnUse"><stop offset="0" stop-color="#fff"/><stop offset=".32" stop-color="#fefcfc"/><stop offset=".51" stop-color="#fdf5f4"/><stop offset=".66" stop-color="#fce9e6"/><stop offset=".78" stop-color="#fad8d2"/><stop offset=".9" stop-color="#f7c2b9"/><stop offset="1" stop-color="#f5a99d"/></linearGradient><linearGradient id="g" x1="567.27" x2="890.77" y1="531.79" y2="531.79" gradientUnits="userSpaceOnUse"><stop offset="0" stop-color="#f6b09d"/><stop offset=".03" stop-color="#f7b9a9"/><stop offset=".1" stop-color="#f9cfc3"/><stop offset=".18" stop-color="#fbe0d9"/><stop offset=".27" stop-color="#fdeeea"/><stop offset=".39" stop-color="#fef8f6"/><stop offset=".55" stop-color="#fefdfd"/><stop offset="1" stop-color="#fff"/></linearGradient><linearGradient id="b" x1="171.99" x2="823.65" y1="906.26" y2="359.45" gradientUnits="userSpaceOnUse"><stop offset="0" stop-color="#e73652"/><stop offset=".53" stop-color="#ec634d"/><stop offset="1" stop-color="#f18440"/></linearGradient><linearGradient href="#a" id="i" x1="142.98" x2="244.08" y1="431.02" y2="346.19"/><linearGradient href="#b" id="j" x1="285.46" x2="701.58" y1="1069" y2="719.84"/><linearGradient href="#a" id="l" x1="415.36" x2="576.89" y1="240.9" y2="105.35"/><linearGradient id="m" x1="142.68" x2="849.58" y1="742.75" y2="742.75" gradientUnits="userSpaceOnUse"><stop offset="0" stop-color="#e83f5a"/><stop offset=".04" stop-color="#ed697e"/><stop offset=".09" stop-color="#f191a0"/><stop offset=".15" stop-color="#f5b3be"/><stop offset=".2" stop-color="#f9ced5"/><stop offset=".26" stop-color="#fbe4e8"/><stop offset=".33" stop-color="#fdf3f5"/><stop offset=".4" stop-color="#fefcfc"/><stop offset=".52" stop-color="#fff"/><stop offset=".58" stop-color="#fefaf9"/><stop offset=".65" stop-color="#fcede9"/><stop offset=".73" stop-color="#fad8d0"/><stop offset=".81" stop-color="#f6bbac"/><stop offset=".9" stop-color="#f2957d"/><stop offset=".99" stop-color="#ec6746"/><stop offset="1" stop-color="#ec623f"/></linearGradient><linearGradient href="#b" id="p" x1="329.43" x2="662.82" y1="403.16" y2="403.16"/><filter id="f" width="520.08" height="463.2" x="10.68" y="297.96" filterUnits="userSpaceOnUse"><feOffset/><feGaussianBlur result="f" stdDeviation="35"/><feFlood flood-color="#1d1d1b"/><feComposite in2="f" operator="in"/><feComposite in="SourceGraphic"/></filter><filter id="h" width="519.84" height="463.2" x="461.64" y="297.96" filterUnits="userSpaceOnUse"><feOffset/><feGaussianBlur result="i" stdDeviation="35"/><feFlood flood-color="#1d1d1b"/><feComposite in2="i" operator="in"/><feComposite in="SourceGraphic"/></filter><filter id="k" width="888.96" height="467.76" x="51.72" y="519.48" filterUnits="userSpaceOnUse"><feOffset/><feGaussianBlur result="n" stdDeviation="35"/><feFlood flood-color="#1d1d1b" flood-opacity=".63"/><feComposite in2="n" operator="in"/><feComposite in="SourceGraphic"/></filter><mask id="c" width="970.8" height="908.96" x="10.68" y="78.28" maskUnits="userSpaceOnUse"><path fill="#fff" d="m837.77 433.5 24.37-19.14a39.32 39.32 0 0 0 0-61.85l-24.38-19.14-12.66-9.95-34.85-27.37v-87.99a34.94 34.94 0 0 0-34.94-34.94H633.76L568 121.48l-41.7-32.76a48.85 48.85 0 0 0-60.37 0l-41.7 32.76-65.75 51.64H236.94A34.94 34.94 0 0 0 202 208.06v87.99l-35.05 27.53 3.01-2.36-39.82 31.27a39.35 39.35 0 0 0-.07 61.84l71.93 56.5-38.85-30.52-25.09-19.7-7.91-6.22-.08-.06-14.21-11.17v411.78a67 67 0 0 0 26.82 53.67 68 68 0 0 0 14.04 8.1 67 67 0 0 0 26.21 5.3h626.4a67 67 0 0 0 40.25-13.4 67 67 0 0 0 26.82-53.67V403.16l-86.15 67.67z"/></mask></defs><g mask="url(#c)"><path fill="#fdf8f3" d="M790.25 208.06v262.77l-223.53 175.6-30.07-23.62a65.6 65.6 0 0 0-81.06 0l-30.07 23.62L202 470.83V208.06a34.94 34.94 0 0 1 34.94-34.94h518.37a34.94 34.94 0 0 1 34.94 34.94"/><path fill="url(#a)" d="m837.76 333.37-12.66-9.95-34.85-27.37v174.78l47.52-37.33 24.37-19.14a39.32 39.32 0 0 0 0-61.85z"/><path fill="url(#d)" d="M425.52 646.43 413.34 656 202 489.98l-86.14-67.67v-19.15L202 470.83z" filter="url(#f)"/><path fill="url(#g)" d="M876.4 403.16v19.15l-86.15 67.67L578.91 656l-12.19-9.57 223.53-175.6z" filter="url(#h)"/><path fill="url(#b)" d="m202 489.98-86.14-67.67v392.63a67 67 0 0 0 26.82 53.67l136.51-107.24 95.54-75.06L413.34 656zm588.25 0L578.91 656l38.6 30.31 95.56 75.06 136.51 107.24a67 67 0 0 0 26.82-53.67V422.31z"/><path fill="url(#i)" d="m166.95 323.58 3.01-2.36-39.82 31.27a39.35 39.35 0 0 0 0 61.9l7.92 6.22 25.09 19.7L202 470.83V296.05z"/><path fill="url(#j)" d="m688.7 761.37-81.9-64.33-40.07-31.47-12.2-9.57-26.48-20.8a53.16 53.16 0 0 0-63.85 0L437.7 656l-12.19 9.57-40.07 31.47-81.9 64.33-146.83 115.35a67 67 0 0 0 26.21 5.3h626.4a67 67 0 0 0 26.2-5.3z" filter="url(#k)"/><path fill="url(#l)" d="m568.01 121.48-41.7-32.76a48.85 48.85 0 0 0-60.37 0l-41.7 32.76-65.75 51.64h275.27z"/><path fill="url(#m)" d="M849.58 868.6a67 67 0 0 1-14.06 8.12L688.7 761.37l-81.9-64.33-40.07-31.47-12.2-9.57-26.48-20.8a53.16 53.16 0 0 0-63.85 0L437.7 656l-12.19 9.57-40.07 31.47-81.9 64.33-146.83 115.35a68 68 0 0 1-14.04-8.11l136.5-107.24 95.55-75.06 38.6-30.31 12.2-9.57 30.06-23.62a65.6 65.6 0 0 1 81.06 0l30.07 23.62L578.9 656l38.6 30.31 95.56 75.06z"/></g><g fill="#fff"><path d="m499.93 710.66.07.08v-23.47l-.05.01c-1.33.33-8.73 15.4-11.82 18.56-5.77 5.88-15.07 8.77-19.2 17.01-3.46 6.88-1.7 10.13-.47 17.02-7.45 1.5-12.94 1.38-19.73 6-20.52 13.95-14.05 48.48 12.71 48.89 12.56.19 23.07-12.53 15.72-23.98-3.2-4.99-10-7.84-14.55-2.86-5.43 5.95 6.25 7.52 3.5 12.8-3.93 7.57-17.95-1.42-16.77-11.96 1.53-13.8 15.94-19.44 28.1-14.6 19.89 7.9 18.22 38.22 2.1 49.37-4.55 3.15-13.5 2-12.98 8.12.32 3.82 7.26 3.31 10.48 4.8 9.31 4.3 19.43 13.2 21.23 23.76H500v-21.08a1.6 1.6 0 0 1-1.22.12l-7.69-7.67 8.84-13.33.07.09V759.6l-.07.07c-2.52-2.47-3.1-5.95-5.25-8.73-5.34-6.91-14.45-8.3-14.12-18.7.35-11.1 14.93-11.2 19.37-21.58"/><path d="M500 728.21v11.7c-5.7-1.35-7.21-10.1-1-11.57q.5-.11 1-.13"/></g><g fill="#fff"><path d="M519.44 732.24c.33 10.4-8.78 11.79-14.11 18.7-2.15 2.78-2.74 6.26-5.26 8.73l-.07-.07v38.74l.07-.09 8.84 13.33-7.69 7.67q-.75.16-1.22-.12v21.07h1.73c1.8-10.55 11.92-19.46 21.23-23.75 3.22-1.49 10.16-.98 10.48-4.8.52-6.12-8.43-4.97-12.98-8.12-16.12-11.15-17.79-41.47 2.1-49.38 12.16-4.83 26.57.8 28.1 14.61 1.18 10.54-12.84 19.53-16.77 11.96-2.75-5.28 8.93-6.85 3.5-12.8-4.55-4.98-11.35-2.13-14.55 2.86-7.35 11.45 3.16 24.17 15.72 23.98 26.76-.41 33.23-34.94 12.71-48.9-6.79-4.6-12.28-4.5-19.73-5.99 1.24-6.9 2.99-10.14-.47-17.02-4.13-8.24-13.43-11.13-19.2-17-3.1-3.17-10.49-18.24-11.82-18.57H500v23.46l.07-.08c4.44 10.37 19.02 10.48 19.37 21.58"/><path d="M500 728.21v11.7c5.7-1.35 7.21-10.1 1-11.57a5 5 0 0 0-1-.13"/></g><path fill="url(#p)" d="M441.72 381.34c-22.4-20.65-60.19-21.89-79.6 2.68-12.92 18.63-14.57 49.96 9.58 59.75 8.02 3.25 25.43 2.64 27.8-7.6 2.73-11.86-11.53-6.26-14.43-15.62-4.54-14.66 12.83-21.08 24.37-15.42 27.85 13.66 13.8 55.19-14.2 62.55-55.93 14.7-85.6-57.91-50.99-99.3 45.4-54.26 127.6-19.85 141.8 44.22 11.3 51.1-20.65 117.26-80.47 109.1-8.96-1.22-14.23-8.92-9.34-17.23 4.92-8.36 12.82-3.4 20.8-4.26 52.8-5.7 63.04-88.22 24.68-118.87m101.1 7.63c19.83-24.23 58.25-32.74 82.73-10.34 22.13 20.26 16.81 68.1-17.05 67.16-7.12-.2-16.52-4.37-16.94-12.45-.4-7.84 7.39-5.22 11.6-8.17 11.86-8.3-.03-23.19-12.4-22.3-23.63 1.68-28.5 32.88-16.14 49.95 22.86 31.58 71.55 14.41 83.98-18.73 14.49-38.63-9.87-80.75-49.27-90.23-23.18-5.58-52.62.46-70.12 16.9l1.82.95q8.29-6.78 7 .85l1.22.85q8-3.23 12.42-1.1c-6.28-2.4-10.81 5.81-6.8 11.43-.44.98-7.83 6.5-9.2 6.74-12.6-3.47-17.72 4.64-10.87 15.33q-3.06 4.7-.95 7c3.33-4.57 5.28-9.34 8.97-13.84m-13.45-19.26-1.65 2.57q5.3 5.47-.02 6.37-4.31-4.9-9.06 4.47c-8.2 10.08-14.4 33.02-15.2 46.08-2.39 39.47 19.22 83.18 60.63 91.42 10.57 2.1 39.76 3.91 32.14-15.16-3.67-9.2-11.26-5.03-18-5.24-28.1-.88-48.35-28.68-50.61-54.94-1.5-17.4 1.22-26.59 6.25-42.48.57-1.8 2.64-6.04 2.7-6.78.26-2.95-5.88-7.59-1.84-12.48 3.26-3.93 6.86-1.4 10.37-1.26 4.58.17 7.62-5.86 11.94-7.3.38-.55-2.4-5.93-2.34-6.63.02-.34 3.36-4.66 3.76-5.78 2.85 3.96 7.34.15 3.47-2.64-3.43-2.46-11.63 2.77-12.85 1.72.3-3.82 6-4.76 5.35-8.94-2.62-.5-2.91 2.86-4.2 3.64-1.82 1.1-3.44.09-4.76.5-.53.17-5.14 3.2-6.24 3.91-4.63 3.03-6.18 5.23-9.84 8.95m-34.93-140.05c-1.23.85-9.58 23-12 27.35a107.4 107.4 0 0 1-37.41 38.62c-2.9 1.75-14.3 5.02-13.1 9.1.39 1.3 14.83 7.96 17.4 9.5 14.2 8.53 25.93 21.23 34.24 35.54 2.02 3.47 10.79 24.1 12.36 24.37 3.45.6 7.12-12.68 8.51-15.5 2.75-5.6 7.06-13.74 10.62-18.45l4.66-6.39a137 137 0 0 1-5.1-5.25c.81-10.01 1.39-13.47 12.17-13.35 1.4-5.91 2.96-18.71-6.3-16.32-.04 6.19-3.06 8.3-8.1 11.79-1.78-.69-2.49.02-1.8 1.79a172 172 0 0 0-11.63 14.3c-1.06-.32-2.12-.53-2.59.4-5.16-9.73-13.6-17.45-21.82-24.31 9.17-6.02 16.25-14.19 21.85-23.65q2.48 3.5 4.35 1.95 3.26 3.57 5.39-4.19c3.34-.16 8.17-8.76 8.2-11.27.01-1.51-5.88-12.1-8.38-10.15-3.47 4.27-11.7 3.21-13.44-2 8.47-1.69 13.42-6.03 9.13-14.44-.55-3.04-2.73-12.52-7.2-9.44M487 563.71c1.9 3.09 5.13 11.95 7.5 13.53q6.29.61 8.94-9.84c.3-.28.54-.66.9-.9.32-2.68 5.54-10.7 7.58-12.53 2.9-2.58 12.55-6.51 16.68-9.26 2.93-1.95 4.76-2.66 2.16-5.99-4.65-5.95-13.4-5.3-18.39-10.48-6.16-6.4-8.31-28.72-14.04-30.44-9.42-2.82-12.17 17.78-15.03 23.96-4.05 8.74-7.36 7.62-14.32 11.63-1.4.8-8.1 5.1-8.38 5.98-1.74 5.23 12.32 9.79 15.95 12.43 1.97 1.43 3 3.27 4.53 4.87 2.47 2.58 3.87 3.72 5.92 7.04m49.98-245.88c6.25-4.58 15.46-7.67 21.31-11.78.88-.62 2.7-1.66 2.39-2.96-14.56-8.1-27.93-16.28-38.92-29.09-8.78-10.22-14.65-22.7-20.11-34.9.21 1.21.8 4.1.77 4.96-.14 3.79-7.65 8.56-11.51 7.57-1.62 6.73 7.7 9.44 12.8 7.87 1.6-.5 2.32-3.1 4.53-2.45.52.15 4.81 6.3 4.89 6.8.07.53-3.9 8.98-4.42 9.6-1.3 1.54-2.97 1.36-3.93 2.33-1.5 1.54-.66 5.52-4.03 5.37l-.47 2.34c4.39 8.04 9.9 14.07 16.86 19.82q-5.2 3.8-4.76 7.36c4.07-2.2 10.1-5.34 8.95-10.74 7.18-.19 3.7 9.5 4.47 14.32-8.71-.66-10.15-.43-12.12 8-1.8 7.76-1.33 8 4.95 12.12l-3.57 5.82c5.35-7.07 14.8-17.16 21.92-22.36m-158.8-15.7c.18 1.95 8.87 10.42 11.22 10.42 2.68 0 11.27-8.67 11.27-11.28 0-2.83-9.08-11.81-11.98-11.06-1.52.4-10.71 9.96-10.52 11.91M344.13 510.6c0 2.58 8.56 11.23 11.13 11 1.83-.18 11.35-9.4 11.35-11-2.02-2.98-9.32-12.04-12.8-11.06-1.67.47-9.68 8.97-9.68 11.06m281.03-.77c-.3 1.8 9.27 11.88 11.06 11.93 2.87.08 11.58-8.72 11.23-12.03-.21-2.05-9.03-11-11.9-10.19-.8.22-10.26 9.57-10.39 10.29m-21.95-197.34c4.42.65 9.3-8.07 12.05-11.22 0-1.4-9.81-11.2-11.21-11.2l-10.99 9.14c-2.4 3.44 8.29 13 10.15 13.28m-84.58 70.63c7.65-9.4 5.65-2.6 9.37-2.67a4.42 4.42 0 0 0 4.06-5.64c-.28-.92-4.06-1.73-2.7-5.1-3.91 3.98-8.77 7.82-10.73 13.41m-17.01-58.58 8.96-12.08c-4.27 4.4-9.4 8.2-11.63 14.3.8-.7 2.06-1.13 2.67-2.22"/></svg>